<?xml version="1.0" encoding="UTF-8"?>
<svg id="Livello_2" data-name="Livello 2" xmlns="http://www.w3.org/2000/svg" viewBox="0 0 725.24 165">
  <defs>
    <style>
      .cls-1 {
        fill: #ff8767;
      }

      .cls-1, .cls-2, .cls-3, .cls-4 {
        stroke-width: 0px;
      }

      .cls-1, .cls-3, .cls-4 {
        fill-rule: evenodd;
      }

      .cls-2 {
        fill: #333;
      }

      .cls-3 {
        fill: #15bde8;
      }

      .cls-4 {
        fill: #2ad03d;
      }
    </style>
  </defs>
  <g id="Livello_1-2" data-name="Livello 1">
    <g>
      <g>
        <path class="cls-4" d="m54.55,68.04c-2.78,1.22-5.86,1.9-9.09,1.9-12.55,0-22.73-10.18-22.73-22.73s10.18-22.73,22.73-22.73,22.73,10.18,22.73,22.73c0,.64-.03,1.27-.08,1.89,5.64-6.38,12.92-11.26,21.18-13.99C83.98,15.88,66.37,1.75,45.45,1.75,20.35,1.75,0,22.1,0,47.21s20.35,45.45,45.45,45.45c3.11,0,6.15-.32,9.09-.92v-23.71Z"/>
        <path class="cls-1" d="m104.55,35.84c-19.71,0-36.47,12.54-42.78,30.08l20.34,11.75c1.74-10.83,11.12-19.1,22.44-19.1,12.55,0,22.73,10.18,22.73,22.73s-10.18,22.73-22.73,22.73c-4.68,0-9.03-1.42-12.64-3.84,1.57,4.79,2.42,9.9,2.42,15.2,0,3.41-.35,6.74-1.02,9.96,3.6.92,7.36,1.4,11.24,1.4,25.1,0,45.45-20.35,45.45-45.45s-20.35-45.45-45.45-45.45Z"/>
        <path class="cls-3" d="m80.32,86.23l-20.3,11.72c4.98,4.17,8.16,10.43,8.16,17.44,0,12.55-10.18,22.73-22.73,22.73s-22.73-10.18-22.73-22.73c0-8.93,5.15-16.65,12.64-20.36-8.51-1.79-16.2-5.79-22.45-11.37C4.92,91.85,0,103.04,0,115.39c0,25.1,20.35,45.45,45.45,45.45s45.45-20.35,45.45-45.45c0-11.1-3.98-21.26-10.59-29.15Z"/>
      </g>
      <g>
        <path class="cls-2" d="m173.85,82.4c0-22.6,18.6-41.2,41.2-41.2,17.4,0,32.2,10.8,38.2,25.8h-17.6c-4.6-6.2-12.2-10.2-20.6-10.2-14.2,0-25.6,11.4-25.6,25.6s11.4,25.8,25.6,25.8c8.4,0,16-4,20.6-10.2h17.6c-6,15-20.8,25.6-38.2,25.6-22.6,0-41.2-18.4-41.2-41.2Z"/>
        <path class="cls-2" d="m304.05,41.2c22.8,0,41.2,18.6,41.2,41.2v41.2h-15.4v-41.2c0-14.2-11.6-25.6-25.8-25.6s-25.6,11.4-25.6,25.6v41.2h-15.6V0h15.6v50.4c7-5.8,16-9.2,25.6-9.2Z"/>
        <path class="cls-2" d="m439.65,82.4c0,22.6-18.4,41.2-41.2,41.2s-41.2-18.6-41.2-41.2,18.4-41.2,41.2-41.2,41.2,18.4,41.2,41.2Zm-15.4,0c0-14.2-11.6-25.8-25.8-25.8s-25.8,11.6-25.8,25.8,11.6,25.6,25.8,25.6,25.8-11.4,25.8-25.6Z"/>
        <path class="cls-2" d="m492.84,41.2v15.4c-14.2,0-25.6,11.6-25.6,25.8v41.2h-15.6v-41.2c0-22.8,18.6-41.2,41.2-41.2Z"/>
        <path class="cls-2" d="m577.64,82.4v41.2h-15.4v-9c-7.2,5.6-16,9-25.8,9-22.8,0-41.2-18.4-41.2-41.2s18.4-41.2,41.2-41.2,41.2,18.4,41.2,41.2Zm-15.4,0c0-14.2-11.6-25.8-25.8-25.8s-25.8,11.6-25.8,25.8,11.6,25.8,25.8,25.8,25.8-11.6,25.8-25.8Z"/>
        <path class="cls-2" d="m589.64,0h15.6v123.6h-15.6V0Z"/>
        <path class="cls-2" d="m617.24,0h15.6v123.6h-15.6V0Z"/>
        <path class="cls-2" d="m708.44,41.4h16.8l-33,82.4-16.4,41.2h-16.8l16.6-41.2-32.8-82.4h16.6l24.6,61.4,24.4-61.4Z"/>
      </g>
    </g>
  </g>
</svg>