<svg id="Icona_Instagram" data-name="Icona Instagram" xmlns="http://www.w3.org/2000/svg" width="32" height="32" viewBox="0 0 32 32">
  <circle id="Ellisse_1713" data-name="Ellisse 1713" cx="16" cy="16" r="16" fill="#c32aa3"/>
  <g id="Instagram_outlined" data-name="Instagram outlined" transform="translate(8 8)">
    <rect id="Rettangolo_6801" data-name="Rettangolo 6801" width="16" height="16" transform="translate(0)" fill="none"/>
    <path id="Icon_awesome-instagram" data-name="Icon awesome-instagram" d="M8,5.388a4.1,4.1,0,1,0,4.1,4.1A4.094,4.094,0,0,0,8,5.388Zm0,6.767a2.666,2.666,0,1,1,2.666-2.666A2.671,2.671,0,0,1,8,12.155Zm5.225-6.935a.956.956,0,1,1-.956-.956A.954.954,0,0,1,13.222,5.221Zm2.716.971A4.733,4.733,0,0,0,14.646,2.84,4.765,4.765,0,0,0,11.3,1.548c-1.321-.075-5.279-.075-6.6,0A4.758,4.758,0,0,0,1.345,2.836,4.749,4.749,0,0,0,.053,6.188c-.075,1.321-.075,5.279,0,6.6a4.733,4.733,0,0,0,1.292,3.351A4.771,4.771,0,0,0,4.7,17.43c1.321.075,5.279.075,6.6,0a4.733,4.733,0,0,0,3.351-1.292,4.765,4.765,0,0,0,1.292-3.351c.075-1.321.075-5.275,0-6.6ZM14.232,14.2a2.7,2.7,0,0,1-1.52,1.52c-1.053.418-3.551.321-4.715.321s-3.665.093-4.715-.321a2.7,2.7,0,0,1-1.52-1.52c-.418-1.053-.321-3.551-.321-4.715s-.093-3.665.321-4.715a2.7,2.7,0,0,1,1.52-1.52C4.336,2.836,6.834,2.933,8,2.933s3.665-.093,4.715.321a2.7,2.7,0,0,1,1.52,1.52c.418,1.053.321,3.551.321,4.715S14.65,13.154,14.232,14.2Z" transform="translate(0.004 -1.486)" fill="#fff"/>
  </g>
</svg>
