<svg id="Icona_LinkedIn" data-name="Icona LinkedIn" xmlns="http://www.w3.org/2000/svg" width="32" height="32" viewBox="0 0 32 32">
  <circle id="Ellisse_1712" data-name="Ellisse 1712" cx="16" cy="16" r="16" fill="#007bb5"/>
  <g id="LinkedIn_filled" data-name="LinkedIn filled" transform="translate(8 8)">
    <path id="Icon_zocial-linkedin" data-name="Icon zocial-linkedin" d="M-.18,1.951A1.624,1.624,0,0,1,.348.706,1.937,1.937,0,0,1,1.721.216,1.879,1.879,0,0,1,3.063.7,1.7,1.7,0,0,1,3.591,2,1.588,1.588,0,0,1,3.078,3.2a1.94,1.94,0,0,1-1.388.5H1.675A1.846,1.846,0,0,1,.333,3.2,1.672,1.672,0,0,1-.18,1.951Zm.2,13.2V5.073H3.365V15.15H.016Zm5.2,0H8.569V9.524a2.172,2.172,0,0,1,.121-.815,2.188,2.188,0,0,1,.641-.867,1.639,1.639,0,0,1,1.079-.355q1.69,0,1.69,2.278V15.15h3.349V9.373a4.855,4.855,0,0,0-1.056-3.387A3.6,3.6,0,0,0,11.6,4.832,3.423,3.423,0,0,0,8.569,6.507v.03H8.554l.015-.03V5.073H5.22q.03.483.03,3T5.22,15.15Z" transform="translate(0.18 -0.216)" fill="#fff"/>
    <rect id="Rettangolo_6773" data-name="Rettangolo 6773" width="16" height="16" transform="translate(0 0)" fill="none"/>
  </g>
</svg>
