<svg id="Outlook" xmlns="http://www.w3.org/2000/svg" width="32" height="32" viewBox="0 0 32 32">
  <circle id="Ellisse_9" data-name="Ellisse 9" cx="16" cy="16" r="16" fill="#0072c6"/>
  <path id="Icon_simple-microsoftoutlook" data-name="Icon simple-microsoftoutlook" d="M16,5.645V12.63a.513.513,0,0,1-.159.384.533.533,0,0,1-.387.153h-5.7V8.528l1.067.819a.382.382,0,0,0,.253.084.412.412,0,0,0,.259-.085ZM9.757,4.3h5.7a.537.537,0,0,1,.362.128.471.471,0,0,1,.165.34L11.069,8.683,9.757,7.65V4.3Zm-.821-3V16.143L0,14.6V2.883L8.937,1.3h0Zm-2.7,7.453a3.1,3.1,0,0,0-.586-1.876A1.808,1.808,0,0,0,4.23,6.1a1.817,1.817,0,0,0-1.4.776,3.06,3.06,0,0,0-.58,1.876,3.042,3.042,0,0,0,.59,1.861,1.846,1.846,0,0,0,1.4.784,1.839,1.839,0,0,0,1.43-.78,3.06,3.06,0,0,0,.59-1.865H6.237ZM4.157,7.095a.892.892,0,0,1,.722.478,2.188,2.188,0,0,1,.29,1.168,2.21,2.21,0,0,1-.29,1.181.867.867,0,0,1-.731.469.854.854,0,0,1-.73-.46,2.114,2.114,0,0,1-.29-1.169,2.058,2.058,0,0,1,.29-1.16.919.919,0,0,1,.721-.481Z" transform="translate(8 7.703)" fill="#fff"/>
</svg>
