<svg id="Playstore" xmlns="http://www.w3.org/2000/svg" width="32" height="32" viewBox="0 0 32 32">
  <rect id="Rettangolo_47" data-name="Rettangolo 47" width="32" height="32" rx="16" fill="#01875f"/>
  <path id="Tracciato_41" data-name="Tracciato 41" d="M15.019,7.175,2.917.257A1.949,1.949,0,0,0,0,1.949V15.784a1.949,1.949,0,0,0,2.917,1.692l12.1-6.918a1.95,1.95,0,0,0,0-3.384ZM9.774,5.539,8.113,7.853,4.138,2.317Zm-7.9,11.005a.742.742,0,0,1-.309-.1.768.768,0,0,1-.381-.662V1.949a.77.77,0,0,1,.383-.664.783.783,0,0,1,.307-.1l5.512,7.68Zm2.265-1.128L8.113,9.88l1.661,2.314ZM14.431,9.533l-3.625,2.072L8.84,8.867l1.965-2.738L14.431,8.2a.769.769,0,0,1,0,1.333Z" transform="translate(8 7)" fill="#fff"/>
</svg>
