<svg id="Icona_Powerreviews" data-name="Icona Powerreviews" xmlns="http://www.w3.org/2000/svg" width="32" height="32" viewBox="0 0 32 32">
  <circle id="Ellipse_8" data-name="Ellipse 8" cx="16" cy="16" r="16" fill="#53c7e6"/>
  <g id="Group_103093" data-name="Group 103093" transform="translate(3.846 3.7)">
    <g id="Path_89649" data-name="Path 89649" transform="translate(-51.891 -36.072)" fill="none">
      <path d="M64.177,50.017H60.43v6.223h-2.5V41.616a1.3,1.3,0,0,1,1.283-1.2h4.964c3.217,0,5.276,2.045,5.276,4.8S67.395,50.017,64.177,50.017Zm-.138-7.453H60.43v5.272h3.609c1.735,0,2.916-.956,2.916-2.623a2.6,2.6,0,0,0-2.916-2.641Z" stroke="none"/>
      <path d="M 60.43004608154297 56.23912811279297 L 57.93000411987305 56.23912811279297 L 57.93000411987305 41.61615753173828 C 57.97085571289062 40.95848846435547 58.52755737304688 40.43954849243164 59.21315765380859 40.42000579833984 L 64.17726898193359 40.42000579833984 C 67.39456939697266 40.42000579833984 69.45364379882812 42.46511840820312 69.45364379882812 45.22100830078125 C 69.45364379882812 47.97689819335938 67.39456939697266 50.01655578613281 64.17726898193359 50.01655578613281 L 60.43004608154297 50.01655578613281 L 60.43004608154297 56.23912811279297 Z M 60.43004608154297 42.56326675415039 L 60.43004608154297 47.83510589599609 L 64.03910827636719 47.83510589599609 C 65.77455902099609 47.83510589599609 66.95550537109375 46.87889862060547 66.95550537109375 45.21191787719727 C 66.95550537109375 43.54492568969727 65.77455902099609 42.5705451965332 64.03910827636719 42.5705451965332 L 64.03910827636719 42.56326675415039 L 60.43004608154297 42.56326675415039 Z" stroke="none" fill="#fff"/>
    </g>
    <g id="Path_89650" data-name="Path 89650" transform="translate(-73.379 -83.244)" fill="none">
      <path d="M91.192,103.589,87.751,98.63a4.1,4.1,0,0,1-1.549.186H85.08l3.285,4.777Z" stroke="none"/>
      <path d="M 88.3648681640625 103.5925979614258 L 85.08000946044922 98.81584167480469 L 86.20191955566406 98.81584167480469 C 87.36515045166016 98.81584167480469 87.75056457519531 98.63001251220703 87.75056457519531 98.63001251220703 L 91.19203948974609 103.5891418457031 L 88.3648681640625 103.5925979614258 Z" stroke="none" fill="#fff"/>
    </g>
  </g>
</svg>
