<svg id="Social_icon_whatsapp" data-name="Social icon whatsapp" xmlns="http://www.w3.org/2000/svg" width="32" height="32" viewBox="0 0 32 32">
  <circle id="Ellisse_1704" data-name="Ellisse 1704" cx="16" cy="16" r="16" fill="#25d366"/>
  <path id="Tracciato_91038" data-name="Tracciato 91038" d="M17.647,6.211A7.772,7.772,0,0,0,12.069,3.9,7.907,7.907,0,0,0,4.18,11.789a7.988,7.988,0,0,0,1.036,3.945L4.1,19.838l4.184-1.116a7.855,7.855,0,0,0,3.785.956h0A7.889,7.889,0,0,0,17.647,6.211ZM12.069,18.364h0a6.5,6.5,0,0,1-3.347-.916l-.239-.159-2.47.638.677-2.431-.159-.239a6.405,6.405,0,0,1-1-3.506,6.581,6.581,0,0,1,6.574-6.574,6.53,6.53,0,0,1,6.535,6.574A6.615,6.615,0,0,1,12.069,18.364Zm3.586-4.9a10.374,10.374,0,0,0-1.355-.638c-.2-.08-.319-.12-.438.08a6.357,6.357,0,0,1-.638.757.307.307,0,0,1-.438.04,6.053,6.053,0,0,1-1.594-1,5.862,5.862,0,0,1-1.116-1.355.289.289,0,0,1,.08-.4c.08-.08.2-.239.319-.359.08-.12.12-.2.2-.319a.381.381,0,0,0,0-.359c-.04-.08-.438-1.076-.6-1.474s-.319-.319-.438-.319h-.4a.627.627,0,0,0-.518.239A2.148,2.148,0,0,0,8.045,10a3.986,3.986,0,0,0,.8,2.032,8.9,8.9,0,0,0,3.387,2.988,10.063,10.063,0,0,0,1.116.4,2.715,2.715,0,0,0,1.235.08,1.871,1.871,0,0,0,1.315-.956,1.9,1.9,0,0,0,.12-.956A1.665,1.665,0,0,1,15.655,13.463Z" transform="translate(3.83 4.313)" fill="#fff" fill-rule="evenodd"/>
</svg>
