<svg id="Empty_states_-_search_generica" data-name="Empty states - search generica" xmlns="http://www.w3.org/2000/svg" width="200" height="130" viewBox="0 0 200 130">
  <g id="Rectangle_16334" data-name="Rectangle 16334" fill="#fff" stroke="#707070" stroke-width="1" opacity="0">
    <rect width="200" height="130" stroke="none"/>
    <rect x="0.5" y="0.5" width="199" height="129" fill="none"/>
  </g>
  <g id="Group_103012" data-name="Group 103012" transform="translate(-672 -276)">
    <circle id="Ellipse_2015" data-name="Ellipse 2015" cx="45" cy="45" r="45" transform="translate(729 279)" fill="#fff"/>
    <g id="binocolo1" transform="translate(710.99 322)">
      <path id="Path_91539" data-name="Path 91539" d="M293.8,36.255c-15.26-2.161-26.045,3.124-33.57,16.354-1.083-9.089-2.251-17.343-2.983-25.635a11.028,11.028,0,0,1,7.169-11.195c5.032-2.058,8.925-1.211,12.9,2.959,5.322,5.583,10.574,11.229,16.487,17.515Z" transform="translate(-188.76 -10.834)" fill="#e3e3e6"/>
      <path id="Path_91540" data-name="Path 91540" d="M108.573,13.673c4.8,1.848,7.844,5.422,7.746,10.539-.114,5.843-1.062,11.676-1.727,17.5-.357,3.138-.878,6.257-1.445,10.208C105.784,38.379,94.9,33.17,79.55,34.77c1.6-1.977,2.541-3.282,3.629-4.451C87.522,25.66,92,21.128,96.253,16.39c3.531-3.935,7.655-4.517,12.32-2.719Z" transform="translate(-58.375 -9.357)" fill="#e3e3e6"/>
      <path id="Path_91541" data-name="Path 91541" d="M71.227,2.866A15.678,15.678,0,0,1,81.541.1a15.2,15.2,0,0,1,9.279,4.877c8.8,9.228,17.644,18.425,26.33,27.767,7.467,8.028,10.375,17.4,6.884,28-3.411,10.368-10.75,16.859-21.646,18.725C91.051,81.415,81.8,77.441,74.944,68.357a5.212,5.212,0,0,0-4.88-2.487c-4.822.161-9.656.158-14.478,0A5.486,5.486,0,0,0,50.419,68.5C43.862,77.32,34.773,81.257,23.935,79.646,12.357,77.928,4.547,71.1,1.208,59.868c-3.105-10.45.008-19.5,7.28-27.29,8.786-9.4,17.7-18.7,26.572-28.022A14.054,14.054,0,0,1,51.358,1.3a17.973,17.973,0,0,1,7.424,6c3.667,5.3.226,10.787,4.484,10.787,3.725,0,.963-10.065,7.959-15.219ZM53.918,41.177c.54-3.748,1.04-6.707,1.384-9.681.636-5.528,1.543-11.06,1.65-16.6.1-4.854-2.821-8.244-7.416-10-4.465-1.7-8.414-1.15-11.793,2.58-4.071,4.493-8.358,8.794-12.514,13.214-1.043,1.108-1.942,2.348-3.475,4.222,14.691-1.519,25.114,3.422,32.165,16.269Zm50.4-16.03c-5.793-6.186-10.944-11.74-16.16-17.235C84.268,3.811,80.452,2.976,75.519,5a10.847,10.847,0,0,0-7.027,11.013c.718,8.157,1.863,16.28,2.922,25.222,7.376-13.013,17.948-18.215,32.9-16.088ZM3.893,52.246A23.421,23.421,0,0,0,27.886,76.34c14.741.005,23.781-10.929,24.2-23.658.428-12.927-11.019-24.2-24.116-24.219A24.12,24.12,0,0,0,3.9,52.248Z" transform="translate(0 0)" fill="#cccccf"/>
      <path id="Path_91542" data-name="Path 91542" d="M226.167,96.082a2.863,2.863,0,0,1-2.879,3.2l-4.971-.029a2.86,2.86,0,0,1-2.842-3.209l1.865-14.638a2.869,2.869,0,0,1,2.858-2.5h1.293a2.868,2.868,0,0,1,2.86,2.506Z" transform="translate(-158.114 -58.14)" fill="#cccccf"/>
      <path id="Path_91543" data-name="Path 91543" d="M222.686,185.364h-14.9c.814-4.856,1.847-9.623,2.32-14.43a3.353,3.353,0,0,1,1.139-2.508c.963-.742,2.3-.729,4.244-.711,1.769.016,2.906.026,3.762.695a3.1,3.1,0,0,1,1.064,2.251c.575,4.9,1.543,9.768,2.366,14.706Z" transform="translate(-152.491 -123.566)" fill="#e3e3e6"/>
      <path id="Path_91544" data-name="Path 91544" d="M324.07,132.084c0,13.045-10.766,24.311-23.847,23.984-15.234-.382-24.129-11.445-24.353-23.937-.231-12.956,10.835-23.8,23.946-24.032A24.2,24.2,0,0,1,324.07,132.084Z" transform="translate(-202.453 -79.644)" fill="#e3e3e6"/>
      <path id="Path_91545" data-name="Path 91545" d="M38.352,107.7c13.118.021,24.584,11.342,24.158,24.327-.423,12.787-9.478,23.769-24.244,23.763a23.5,23.5,0,0,1-24.033-24.2A24.2,24.2,0,0,1,38.352,107.7Z" transform="translate(-10.428 -79.352)" fill="#e3e3e6"/>
      <path id="Path_91546" data-name="Path 91546" d="M292.9,144.4A19.865,19.865,0,0,1,312.87,124.66,19.753,19.753,0,1,1,292.9,144.4Z" transform="translate(-214.954 -91.848)" fill="#cccccf"/>
      <path id="Path_91547" data-name="Path 91547" d="M30.187,143.206a19.592,19.592,0,0,1,20.207-19c11.551.426,19.991,9.436,19.5,20.826-.46,10.8-9.875,19.16-20.973,18.623A19.619,19.619,0,0,1,30.187,143.206Z" transform="translate(-22.132 -91.501)" fill="#cccccf"/>
      <path id="Path_91548" data-name="Path 91548" d="M75.772,148.365a8.356,8.356,0,0,1-1.285,8.394c-1.855,2.085-4.473,2.485-6.892,2.859-4.529.7-6.024-.69-9.292-.142-2.123.355-5.165,1.553-8.446,5.672-3.683-4.825-3.943-9.721-1.57-14.682a15.729,15.729,0,0,1,4.657-5.693,16.841,16.841,0,0,1,8.7-3.319,15.5,15.5,0,0,1,9.5,1.974A10.129,10.129,0,0,1,75.772,148.365Z" transform="translate(-34.301 -104.158)" fill="#fff"/>
      <path id="Path_91549" data-name="Path 91549" d="M317.32,186.211a8.254,8.254,0,0,1,1.272-8.3c1.836-2.058,4.43-2.458,6.823-2.827,4.417-.679,5.958.537,9.2.145,2.342-.284,5.644-1.429,9.342-5.512A15.9,15.9,0,0,1,346,176.751a15.252,15.252,0,0,1-6.075,13.013,16.757,16.757,0,0,1-8.613,3.282,15.362,15.362,0,0,1-9.409-1.953,10.021,10.021,0,0,1-4.577-4.88Z" transform="translate(-232.454 -125.047)" fill="#fff"/>
      <ellipse id="Ellipse_1998" data-name="Ellipse 1998" cx="3.193" cy="3.159" rx="3.193" ry="3.159" transform="translate(59.543 50.724)" fill="#cccccf"/>
    </g>
    <path id="Icon_weather-stars" data-name="Icon weather-stars" d="M10.734,15.507a10.092,10.092,0,0,0,7.049-3.228,10.052,10.052,0,0,0,2.9-7.2,10.052,10.052,0,0,0,2.9,7.2,10.192,10.192,0,0,0,7.071,3.228,10.178,10.178,0,0,0-5.029,1.559A10.552,10.552,0,0,0,22,20.865a10.326,10.326,0,0,0-1.318,5.116,10.1,10.1,0,0,0-2.9-7.225A10.026,10.026,0,0,0,10.734,15.507Z" transform="translate(836.266 305.924)" fill="#cccccf"/>
    <path id="Icon_weather-stars-2" data-name="Icon weather-stars" d="M10.734,13.823a8.463,8.463,0,0,0,5.911-2.707,8.429,8.429,0,0,0,2.431-6.04,8.429,8.429,0,0,0,2.431,6.04,8.546,8.546,0,0,0,5.929,2.707,8.535,8.535,0,0,0-4.217,1.307,8.849,8.849,0,0,0-3.038,3.186,8.659,8.659,0,0,0-1.1,4.29,8.472,8.472,0,0,0-2.431-6.058A8.407,8.407,0,0,0,10.734,13.823Z" transform="translate(674.266 319.924)" fill="#cccccf"/>
    <path id="Ellisse_2016" data-name="Ellisse 2016" d="M5.5,2A3.5,3.5,0,1,0,9,5.5,3.5,3.5,0,0,0,5.5,2m0-2A5.5,5.5,0,1,1,0,5.5,5.5,5.5,0,0,1,5.5,0Z" transform="translate(706 290)" fill="#cccccf"/>
    <path id="Ellisse_2017" data-name="Ellisse 2017" d="M4,2A2,2,0,1,0,6,4,2,2,0,0,0,4,2M4,0A4,4,0,1,1,0,4,4,4,0,0,1,4,0Z" transform="translate(830 330)" fill="#cccccf"/>
    <path id="Poligono_17" data-name="Poligono 17" d="M7.5,4s0,0,0,0L3.463,11h8.074s0,0,0,0L7.5,4h0m0-2A1.981,1.981,0,0,1,9.232,3l4.037,7a2,2,0,0,1-1.732,3H3.463A2,2,0,0,1,1.73,10L5.768,3A1.981,1.981,0,0,1,7.5,2Z" transform="matrix(-0.799, -0.602, 0.602, -0.799, 685.609, 314.531)" fill="#cccccf"/>
    <path id="Poligono_18" data-name="Poligono 18" d="M7.5,4s0,0,0,0L3.463,11h8.074s0,0,0,0L7.5,4h0m0-2A1.981,1.981,0,0,1,9.232,3l4.037,7a2,2,0,0,1-1.732,3H3.463A2,2,0,0,1,1.73,10L5.768,3A1.981,1.981,0,0,1,7.5,2Z" transform="translate(870.029 381.235) rotate(120)" fill="#cccccf"/>
  </g>
</svg>
