<svg id="Empty_states_-_inbox" data-name="Empty states - inbox" xmlns="http://www.w3.org/2000/svg" width="200" height="130" viewBox="0 0 200 130">
  <g id="Group_103144" data-name="Group 103144" transform="translate(22257 -3496)">
    <g id="Group_103081" data-name="Group 103081" transform="translate(-22929 3254)">
      <g id="Group_103013" data-name="Group 103013" transform="translate(-4 -34)">
        <g id="Rectangle_16334" data-name="Rectangle 16334" transform="translate(676 276)" fill="#fff" stroke="#707070" stroke-width="1" opacity="0">
          <rect width="200" height="130" stroke="none"/>
          <rect x="0.5" y="0.5" width="199" height="129" fill="none"/>
        </g>
        <g id="Group_103012" data-name="Group 103012" transform="translate(4)">
          <circle id="Ellipse_2015" data-name="Ellipse 2015" cx="45" cy="45" r="45" transform="translate(729 279)" fill="#fff"/>
          <path id="Icon_weather-stars" data-name="Icon weather-stars" d="M10.734,15.507a10.092,10.092,0,0,0,7.049-3.228,10.052,10.052,0,0,0,2.9-7.2,10.052,10.052,0,0,0,2.9,7.2,10.192,10.192,0,0,0,7.071,3.228,10.178,10.178,0,0,0-5.029,1.559A10.552,10.552,0,0,0,22,20.865a10.326,10.326,0,0,0-1.318,5.116,10.1,10.1,0,0,0-2.9-7.225A10.026,10.026,0,0,0,10.734,15.507Z" transform="translate(836.266 305.924)" fill="#cccccf"/>
          <path id="Icon_weather-stars-2" data-name="Icon weather-stars" d="M10.734,13.823a8.463,8.463,0,0,0,5.911-2.707,8.429,8.429,0,0,0,2.431-6.04,8.429,8.429,0,0,0,2.431,6.04,8.546,8.546,0,0,0,5.929,2.707,8.535,8.535,0,0,0-4.217,1.307,8.849,8.849,0,0,0-3.038,3.186,8.659,8.659,0,0,0-1.1,4.29,8.472,8.472,0,0,0-2.431-6.058A8.407,8.407,0,0,0,10.734,13.823Z" transform="translate(674.266 319.924)" fill="#cccccf"/>
          <path id="Ellisse_2016" data-name="Ellisse 2016" d="M5.5,2A3.5,3.5,0,1,0,9,5.5,3.5,3.5,0,0,0,5.5,2m0-2A5.5,5.5,0,1,1,0,5.5,5.5,5.5,0,0,1,5.5,0Z" transform="translate(706 290)" fill="#cccccf"/>
          <path id="Ellisse_2017" data-name="Ellisse 2017" d="M4,2A2,2,0,1,0,6,4,2,2,0,0,0,4,2M4,0A4,4,0,1,1,0,4,4,4,0,0,1,4,0Z" transform="translate(830 330)" fill="#cccccf"/>
          <path id="Poligono_17" data-name="Poligono 17" d="M7.5,4s0,0,0,0L3.463,11h8.074s0,0,0,0L7.5,4h0m0-2A1.981,1.981,0,0,1,9.232,3l4.037,7a2,2,0,0,1-1.732,3H3.463A2,2,0,0,1,1.73,10L5.768,3A1.981,1.981,0,0,1,7.5,2Z" transform="matrix(-0.799, -0.602, 0.602, -0.799, 685.609, 314.531)" fill="#cccccf"/>
          <path id="Poligono_18" data-name="Poligono 18" d="M7.5,4s0,0,0,0L3.463,11h8.074s0,0,0,0L7.5,4h0m0-2A1.981,1.981,0,0,1,9.232,3l4.037,7a2,2,0,0,1-1.732,3H3.463A2,2,0,0,1,1.73,10L5.768,3A1.981,1.981,0,0,1,7.5,2Z" transform="translate(870.029 381.235) rotate(120)" fill="#cccccf"/>
        </g>
      </g>
    </g>
  </g>
  <g id="box-empty-svgrepo-com" transform="translate(54.142 11.861)">
    <path id="Path_91591" data-name="Path 91591" d="M72.74,112.5,41.181,95.185a.854.854,0,0,0-1.269.74c-.152,6.658-.74,34.6.033,35.51,1.224,1.435,31.47,18.924,32.8,18.924s31.267-18.036,32.8-18.924c1.354-.78.318-28.926.055-35.539a.858.858,0,0,0-1.269-.714Z" transform="translate(-25.386 -51.629)" fill="#191919"/>
    <path id="Path_91592" data-name="Path 91592" d="M67.685,148.25c-.914,0-1.779,0-17.918-9.321-15.876-9.17-16.789-10.239-17.133-10.642-.88-1.036-1.213-1.424-1.069-17.551.07-7.942.255-16.6.333-19.948a3.814,3.814,0,0,1,5.652-3.255L67.688,104.07,97.849,87.521a3.817,3.817,0,0,1,5.648,3.211c.133,3.362.455,12.047.581,20.03.07,4.527.063,8.138,0,10.768-.141,4.5-.37,6.425-2.094,7.424-.248.144-1.258.74-2.774,1.653-29.6,17.644-30.283,17.644-31.526,17.644ZM37.624,124.728c4.413,3,25.212,15.021,30.057,17.385,2.959-1.48,12.536-7.065,28.482-16.593l1.82-1.087c.37-3.388.285-15.077-.263-30.072L69.109,110.04a2.959,2.959,0,0,1-2.848,0L37.738,94.39c-.326,15.439-.374,27-.115,30.339Z" transform="translate(-20.331 -46.573)" fill="#cccccf"/>
    <path id="Path_91593" data-name="Path 91593" d="M40.6,61.692,73.4,44.2l32.8,17.492-32.8,18Z" transform="translate(-26.045 -19.572)" fill="#ededf0"/>
    <path id="Path_91594" data-name="Path 91594" d="M74.648,41.08V76.567l-32.8-18Z" transform="translate(-26.832 -17.606)" fill="#fff"/>
    <path id="Path_91595" data-name="Path 91595" d="M72.732,111.529l-32.8-18s-.88,35.88,0,36.919c1.224,1.435,31.47,18.924,32.8,18.924s31.267-18.036,32.8-18.924,0-36.919,0-36.919Z" transform="translate(-25.378 -50.655)" fill="#cccccf"/>
    <path id="Path_91596" data-name="Path 91596" d="M128.542,111.513c-.37.762-.74,38.029,0,37.844,2.349-.577,31.559-17.359,32.92-19.142.584-.773.884-36.224-.115-36.7S128.923,110.751,128.542,111.513Z" transform="translate(-81.189 -50.639)" fill="#e3e3e6"/>
    <path id="Path_91597" data-name="Path 91597" d="M85,45.895c1.7-.936,10.9-6.04,10.412-6.321S62.982,22.581,62.176,22.337c-.74-.226-9.055,5.215-10.405,6.1-1.391-.965-11.4-7.857-12.539-7.22-1.224.666-30.845,17.193-31.907,17.807-.977.581,9.909,6.051,11.592,6.895-1.572.8-10.982,5.4-10.4,5.73s31,18.287,32.632,18.465c1.047.115,9.543-5.267,10.66-6.007,1.25.829,11.467,7.575,12.488,7L96.524,52.612c.6-.326-9.588-5.711-11.526-6.717ZM51.808,63.968,19.35,45.913l32.4-17.281,32.665,17.23Z" transform="translate(-5.038 -5.066)" fill="#191919"/>
    <path id="Path_91598" data-name="Path 91598" d="M59.142,69.056c-1.48,0-3.5-.991-7.572-3.451C49.8,64.532,48,63.385,46.762,62.571c-1.062.666-2.456,1.531-3.821,2.341-4.96,2.918-6.044,3.2-7.154,3.081-.947-.1-2.123-.229-33.057-18.413l-.74-.433a3,3,0,0,1-1.5-2.7c.063-2.042,1.705-2.911,5.3-4.809.51-.27,1.043-.547,1.572-.817l-1.324-.736c-5.275-2.87-6.714-3.936-6.773-5.94A3.07,3.07,0,0,1,.81,31.4c.814-.47,17.3-9.673,30.993-17.311l.951-.529c1.909-1.065,4.069-.118,9.188,3.085,1.779,1.11,3.555,2.293,4.831,3.159,9.21-5.992,9.909-5.778,11.234-5.371,1.265.37,33.586,17.352,33.849,17.507a3.026,3.026,0,0,1,1.494,2.6c-.018,2.009-1.3,2.752-6.07,5.522l-1.187.688,1.764.973c5.3,2.959,6.554,3.725,6.591,5.737a3.007,3.007,0,0,1-1.505,2.663L63.666,66.91,60.707,68.6a3.074,3.074,0,0,1-1.565.451Zm-6.751-9.9c2.793,1.753,5.178,3.14,6.425,3.729l1.927-1.11,25.116-14.4c-1.594-.9-3.677-2.038-6.177-3.366ZM9.222,46.525C25.589,56.117,33.7,60.659,36.2,61.891c1.076-.525,3.015-1.65,4.875-2.778L14.038,44.084C12,45.1,10.427,45.9,9.222,46.525ZM20.5,40.9l26.262,14.6,26.384-14.64L46.706,26.921ZM7.757,34.289c1.694.951,3.9,2.123,6.288,3.329L41.151,23.163a68.057,68.057,0,0,0-6.5-3.891C19.619,27.657,11.774,32.041,7.753,34.289ZM52.4,23.226,79.656,37.6c1.849-1.028,3.544-1.994,4.934-2.807C76.845,30.724,61.184,22.586,57,20.474c-.969.522-2.619,1.491-4.6,2.752Z" transform="translate(0 0)" fill="#cccccf"/>
    <path id="Path_91599" data-name="Path 91599" d="M85.381,45.878c.03-.481,10.527-6.04,10.043-6.321S63,22.564,62.189,22.32c-.74-.226-10.187,6.077-10.405,6.1s-11.4-7.871-12.539-7.235C38.02,21.868,8.4,38.4,7.338,39.009,6.361,39.59,18.9,45.593,18.93,45.9S7.948,51.3,8.525,51.634,39.533,69.921,41.161,70.1c1.047.115,10.327-6.007,10.66-6.007s11.467,7.575,12.488,7L96.537,52.6c.6-.326-11.186-6.247-11.156-6.717ZM51.821,63.951c-.37-.03-32.447-17.807-32.454-18.043s32.181-17.248,32.4-17.281,32.669,16.767,32.665,17.23S52.194,63.97,51.821,63.94Z" transform="translate(-5.052 -5.049)" fill="#f2f2f5"/>
    <path id="Path_91601" data-name="Path 91601" d="M128.321,142.67c-.248,6.351-.37,28.73.226,37.666" transform="translate(-81.19 -81.619)" fill="#d32920"/>
    <path id="Path_91602" data-name="Path 91602" d="M126.012,179.3a1.48,1.48,0,0,1-1.48-1.38c-.607-9.129-.47-31.522-.226-37.821a1.481,1.481,0,0,1,2.959.115c-.237,6.081-.37,28.641.222,37.511a1.48,1.48,0,0,1-1.38,1.576Z" transform="translate(-78.659 -79.1)" fill="#cccccf"/>
  </g>
</svg>
