<svg id="Empty_states_-_Istanze" data-name="Empty states - Istanze" xmlns="http://www.w3.org/2000/svg" width="200" height="130" viewBox="0 0 200 130">
  <g id="Raggruppa_103081-2" data-name="Raggruppa 103081-2">
    <g id="Raggruppa_103013-2" data-name="Raggruppa 103013-2">
      <g id="Rettangolo_16334-2" data-name="Rettangolo 16334-2" opacity="0">
        <rect id="Rectangle_16338" data-name="Rectangle 16338" width="200" height="130" fill="#fff"/>
        <rect id="Rectangle_16339" data-name="Rectangle 16339" width="199" height="129" transform="translate(0.5 0.5)" fill="none" stroke="#717070" stroke-width="1"/>
      </g>
      <g id="Raggruppa_103012-2" data-name="Raggruppa 103012-2">
        <circle id="Ellisse_2015-2" data-name="Ellisse 2015-2" cx="45" cy="45" r="45" transform="translate(57 3)" fill="#fff"/>
        <path id="Icon_weather-stars-3" data-name="Icon weather-stars-3" d="M175,45.43A10.481,10.481,0,0,0,184.95,35a10.038,10.038,0,0,0,2.9,7.2,10.189,10.189,0,0,0,7.07,3.23,10.216,10.216,0,0,0-5.03,1.56,10.467,10.467,0,0,0-3.62,3.8,10.31,10.31,0,0,0-1.32,5.12,10.124,10.124,0,0,0-2.9-7.23A10,10,0,0,0,175,45.43Z" fill="#cccccf"/>
        <path id="Icon_weather-stars-4" data-name="Icon weather-stars-4" d="M13,57.75a8.441,8.441,0,0,0,5.91-2.71A8.422,8.422,0,0,0,21.34,49a8.422,8.422,0,0,0,2.43,6.04,8.569,8.569,0,0,0,5.93,2.71,8.544,8.544,0,0,0-4.22,1.31,8.938,8.938,0,0,0-3.04,3.19,8.7,8.7,0,0,0-1.1,4.29,8.484,8.484,0,0,0-2.43-6.06,8.375,8.375,0,0,0-5.92-2.72Z" fill="#cccccf"/>
        <path id="Ellisse_2016-2" data-name="Ellisse 2016-2" d="M39.5,16A3.5,3.5,0,1,0,43,19.5,3.5,3.5,0,0,0,39.5,16m0-2A5.5,5.5,0,1,1,34,19.5,5.5,5.5,0,0,1,39.5,14Z" fill="#cccccf"/>
        <path id="Ellisse_2017-2" data-name="Ellisse 2017-2" d="M162,56a2,2,0,1,0,2,2,2.006,2.006,0,0,0-2-2m0-2a4,4,0,1,1-4,4A4,4,0,0,1,162,54Z" fill="#cccccf"/>
        <path id="Poligono_17-2" data-name="Poligono 17-2" d="M10.02,30.82h0l7.44-3.16L11.01,22.8h0l-.99,8.02h0m-1.2,1.6a1.991,1.991,0,0,1-.78-1.84l.99-8.02a2,2,0,0,1,3.19-1.35l6.45,4.86a2,2,0,0,1-.42,3.44l-7.44,3.16a2.005,2.005,0,0,1-1.99-.24Z" fill="#cccccf"/>
        <path id="Poligono_18-2" data-name="Poligono 18-2" d="M190.81,109.73h0l-4.04-7-4.04,6.99h8.08m1.73,1a1.991,1.991,0,0,1-1.73,1h-8.08a2.006,2.006,0,0,1-2-2,1.949,1.949,0,0,1,.27-1l4.04-6.99a1.986,1.986,0,0,1,2.73-.73,2.043,2.043,0,0,1,.73.73l4.04,7a1.987,1.987,0,0,1,0,2Z" fill="#cccccf"/>
        <g id="Layer_x0020_1" transform="translate(-509 -2063.957)">
          <g id="_529042224" transform="translate(563 2082.458)">
            <g id="Group_103158" data-name="Group 103158" transform="translate(0 19.253)">
              <path id="Path_92015" data-name="Path 92015" d="M759.036,1023a1.4,1.4,0,0,1,1.411,1.412v49.8a1.4,1.4,0,0,1-1.411,1.411H678.411a1.4,1.4,0,0,1-1.411-1.411v-49.8a1.4,1.4,0,0,1,1.411-1.412Z" transform="translate(-670.564 -1023)" fill="#cccccf" fill-rule="evenodd"/>
              <path id="Path_92016" data-name="Path 92016" d="M818.995,1090H743v43.192h75.995Z" transform="translate(-732.837 -1086.217)" fill="#f7f7fa" fill-rule="evenodd"/>
              <path id="Path_92017" data-name="Path 92017" d="M652.32,1918.945H569.945a7.025,7.025,0,0,1-6.945-7v-5.533a1.4,1.4,0,0,1,1.412-1.411h93.554a1.4,1.4,0,0,1,1.411,1.411v5.533A7.122,7.122,0,0,1,652.32,1918.945Z" transform="translate(-563 -1855.202)" fill="#cccccf" fill-rule="evenodd"/>
              <path id="Path_92018" data-name="Path 92018" d="M1237,1905h20.269v2.032a5.039,5.039,0,0,1-4.968,4.912h-10.445a4.9,4.9,0,0,1-4.855-4.912Z" transform="translate(-1198.946 -1855.202)" fill="#f2f2f5" fill-rule="evenodd"/>
              <path id="Path_92019" data-name="Path 92019" d="M767.017,2005.823h-6.606a1.4,1.4,0,0,1-1.412-1.411,1.434,1.434,0,0,1,1.412-1.411h6.606a1.434,1.434,0,0,1,1.411,1.411A1.4,1.4,0,0,1,767.017,2005.823Z" transform="translate(-747.934 -1947.669)" fill="#f2f2f5" fill-rule="evenodd"/>
              <path id="Path_92020" data-name="Path 92020" d="M985.961,2005.823h-6.549a1.4,1.4,0,0,1-1.411-1.411,1.434,1.434,0,0,1,1.411-1.411h6.549a1.411,1.411,0,1,1,0,2.823Z" transform="translate(-954.569 -1947.669)" fill="#f2f2f5" fill-rule="evenodd"/>
            </g>
            <g id="Group_103160" data-name="Group 103160" transform="translate(-16536 17556.66)">
              <path id="Path_91599" data-name="Path 91599" d="M42.49,18.809h0A17.654,17.654,0,0,0,24.836,36.463V44.5H60.145V36.463A17.654,17.654,0,0,0,42.49,18.809Z" transform="translate(16541.367 -17570.342)" fill="#6f6f72" opacity="0.82"/>
              <path id="Path_91600" data-name="Path 91600" d="M136.1,18.808h0a17.706,17.706,0,0,0-3.8.411,17.66,17.66,0,0,1,13.857,17.244V44.5h7.6V36.462A17.655,17.655,0,0,0,136.1,18.808Z" transform="translate(16447.758 -17570.342)" opacity="0.1"/>
              <path id="Path_91601" data-name="Path 91601" d="M15.49,182.07a4.336,4.336,0,0,0-4.336,4.336h0a4.336,4.336,0,0,0,4.336,4.336H17.6V182.07Z" transform="translate(16553.283 -17712.553)" fill="#cccccf"/>
              <path id="Path_91602" data-name="Path 91602" d="M41.714,408.407A22.568,22.568,0,0,0,29.04,395.891l-.091-.034H12.764A22.568,22.568,0,0,0,0,408.407Z" transform="translate(16563 -17898.773)" fill="#6f6f72" opacity="0.69"/>
              <path id="Path_91603" data-name="Path 91603" d="M111.673,332.831v-8.146H102.5v8.146a22.349,22.349,0,0,0-3.5,1.031,8.4,8.4,0,0,0,16.185,0A22.348,22.348,0,0,0,111.673,332.831Z" transform="translate(16476.773 -17836.777)" fill="#e3e3e6"/>
              <path id="Path_91604" data-name="Path 91604" d="M126.165,324.683v7.512a19.689,19.689,0,0,0,9.177,0v-7.512Z" transform="translate(16453.104 -17836.775)" fill="#cccccf" opacity="0.44"/>
              <path id="Path_91605" data-name="Path 91605" d="M70.618,108.769a2.718,2.718,0,0,1-2.718-2.718,2.718,2.718,0,1,1-5.436,0,2.718,2.718,0,1,1-5.436,0,2.718,2.718,0,1,1-5.436,0,2.716,2.716,0,0,1-4.869,1.657,13.858,13.858,0,0,0-2.077,7.32v7.611a15.1,15.1,0,0,0,30.2,0v-7.611a13.861,13.861,0,0,0-2.077-7.32A2.712,2.712,0,0,1,70.618,108.769Z" transform="translate(16524.109 -17646.336)" fill="#e3e3e6"/>
            </g>
          </g>
        </g>
      </g>
    </g>
  </g>
</svg>
